# xmcd
#
# Track frame offsets: 
#        150
#        15370
#        33462
#        46090
#        61230
#        73722
#        87940
#        106400
#        126182
#        138340
#        150237
#        163534
#
# Disc length: 2435 seconds
#
# Revision: 0
# Processed by: cddbd v1.5.2PL0 Copyright (c) Steve Scherf et al.
# Submitted via: ExactAudioCopy v0.95b4
#
DISCID=8e09810c
DTITLE=Emil Arvidsson - Legacy
DYEAR=2008
DGENRE=Blues
TTITLE0=You Know My Love
TTITLE1=Three Times A Fool
TTITLE2=Wild Women
TTITLE3=Left Hand Women
TTITLE4=The Call Of Distress
TTITLE5=She's Looking Good
TTITLE6=You Belong To Me
TTITLE7=Baby, You Torture My Soul
TTITLE8=Baby, What's Wrong
TTITLE9=Soul Express
TTITLE10=Have Mercy, Baby
TTITLE11=Feel So Bad
EXTD=
EXTT0=
EXTT1=
EXTT2=
EXTT3=
EXTT4=
EXTT5=
EXTT6=
EXTT7=
EXTT8=
EXTT9=
EXTT10=
EXTT11=
PLAYORDER=
